# Blender 3.6.2
# www.blender.org
mtllib L1-TutorialTree.mtl
o L1-TutorialTree
v 228.047501 163.174194 -0.000012
v 139.544296 6.257076 -0.000000
v 103.694199 20.729719 -0.000002
v 94.621094 22.814791 -0.000002
v 89.675636 21.215740 -0.000002
v 81.036652 15.635230 -0.000001
v 84.859383 17.097891 -0.000001
v 59.479801 4.617653 -0.000000
v 41.028450 5.121031 -0.000000
v 61.113811 5.051142 -0.000000
v 49.750870 0.545212 -0.000000
v 58.730572 3.095034 -0.000000
v 50.960911 0.506195 -0.000000
v 49.299961 0.107841 -0.000000
v 57.000660 -0.545134 0.000000
v 58.730968 0.630882 -0.000000
v 52.282181 -0.464045 0.000000
v 43.822849 2.731951 -0.000000
v 46.611370 -2.375896 0.000000
v 48.575142 -2.064133 0.000000
v 44.904190 -1.317507 0.000000
v 15.381420 13.906350 -0.000001
v 29.173910 4.771517 -0.000000
v 13.389840 14.484250 -0.000001
v 22.896231 7.541868 -0.000001
v 4.218002 14.982240 -0.000001
v 27.752150 1.527455 -0.000000
v 27.484770 -0.635748 0.000000
v 1.084202 14.324300 -0.000001
v 24.368031 -1.249725 0.000000
v 26.303591 -1.389066 0.000000
v 23.878679 0.174343 -0.000000
v -12.699330 9.917229 -0.000001
v -0.056057 12.732890 -0.000001
v -7.313602 10.109130 -0.000001
v -2.118879 11.787030 -0.000001
v -10.401820 9.690727 -0.000001
v -15.793960 7.948278 -0.000001
v -98.800781 137.584595 -0.000010
v -28.058130 -0.981344 0.000000
v -21.779610 0.958053 -0.000000
v -17.429340 4.956394 -0.000000
v -25.430321 -0.435296 0.000000
v -30.398529 -3.163609 0.000000
v -31.377220 -7.107522 0.000001
v 40.041222 -163.064407 0.000012
v -29.070009 -11.621050 0.000001
v -97.178192 -337.526611 0.000025
v -12.956840 -31.519150 0.000002
v -10.042670 -34.296051 0.000003
v -20.110729 -18.091129 0.000001
v -15.158100 -24.406450 0.000002
v -5.403660 -35.173111 0.000003
v 5.698217 -34.414070 0.000003
v 7.284689 -32.582760 0.000002
v 91.213074 -254.948898 0.000019
v 139.960297 -269.015198 0.000020
v 238.127304 -267.605286 0.000020
v 625.107788 -338.097900 0.000026
v 11.882760 -23.624390 0.000002
v 9.145977 -26.775330 0.000002
v 32.619320 -21.245251 0.000002
v 16.841881 -20.967970 0.000002
v 78.213127 -109.320198 0.000008
v 491.809692 -200.216400 0.000015
v 353.685211 -205.953293 0.000016
v 273.722687 -198.968307 0.000015
v 550.726990 -159.515503 0.000012
v 547.101318 -20.361059 0.000002
v 642.543091 136.862106 -0.000010
v 473.139587 68.041718 -0.000005
v 477.950287 -13.237050 0.000001
v 409.197388 64.097061 -0.000005
v 140.101807 6.828709 -0.000001
v 231.033798 164.123703 -0.000012
v 222.918793 -139.559601 0.000011
v 401.204498 -68.928886 0.000005
v 411.767303 -3.636363 0.000000
v 494.458008 -77.112732 0.000006
v 492.457092 -134.315598 0.000010
v 174.221298 -125.379601 0.000009
v 134.627304 -50.306438 0.000004
v 188.621201 -230.652405 0.000017
v 215.346802 -200.380005 0.000015
v 121.818703 -207.849594 0.000016
v 148.283005 -229.169693 0.000017
v 129.176605 -185.785904 0.000014
v 79.450996 13.581600 -0.000001
v 77.202843 11.002850 -0.000001
v 72.526237 7.876459 -0.000001
v 74.691597 8.939323 -0.000001
v 68.733841 5.382553 -0.000000
v 71.038910 6.764505 -0.000001
v 63.536510 5.063126 -0.000000
vn -0.0000 -0.0000 -1.0000
vt 0.444667 0.984166
vt 0.330420 0.685160
vt 0.284141 0.712738
vt 0.272429 0.716711
vt 0.266045 0.713664
vt 0.254893 0.703030
vt 0.259828 0.705817
vt 0.227066 0.682036
vt 0.203247 0.682995
vt 0.229175 0.682862
vt 0.214507 0.674276
vt 0.226099 0.679135
vt 0.216069 0.674202
vt 0.213925 0.673443
vt 0.223866 0.672198
vt 0.226099 0.674439
vt 0.217775 0.672353
vt 0.206855 0.678443
vt 0.210454 0.668710
vt 0.212989 0.669304
vt 0.208251 0.670727
vt 0.170140 0.699736
vt 0.187945 0.682329
vt 0.167569 0.700837
vt 0.179841 0.687608
vt 0.155730 0.701786
vt 0.186109 0.676148
vt 0.185764 0.672026
vt 0.151684 0.700532
vt 0.181741 0.670856
vt 0.184239 0.670590
vt 0.181109 0.673569
vt 0.133891 0.692134
vt 0.150212 0.697500
vt 0.140844 0.692500
vt 0.147549 0.695697
vt 0.136857 0.691703
vt 0.129897 0.688383
vt 0.022745 0.935405
vt 0.114065 0.671367
vt 0.122170 0.675063
vt 0.127786 0.682682
vt 0.117457 0.672408
vt 0.111044 0.667209
vt 0.109780 0.659694
vt 0.201973 0.362517
vt 0.112759 0.651093
vt 0.024839 0.030078
vt 0.133559 0.613177
vt 0.137321 0.607886
vt 0.124324 0.638764
vt 0.130717 0.626730
vt 0.143309 0.606214
vt 0.157640 0.607661
vt 0.159688 0.611150
vt 0.268030 0.187431
vt 0.330957 0.160627
vt 0.457679 0.163314
vt 0.957224 0.028990
vt 0.165624 0.628221
vt 0.162091 0.622216
vt 0.192392 0.632754
vt 0.172026 0.633282
vt 0.251248 0.464927
vt 0.785152 0.291724
vt 0.606850 0.280792
vt 0.503628 0.294102
vt 0.861207 0.369279
vt 0.856527 0.634439
vt 0.979731 0.934029
vt 0.761051 0.802891
vt 0.767261 0.648014
vt 0.678510 0.795374
vt 0.331139 0.686249
vt 0.448522 0.985976
vt 0.438046 0.407305
vt 0.668192 0.541893
vt 0.681827 0.666308
vt 0.788571 0.526298
vt 0.785988 0.417298
vt 0.375184 0.434326
vt 0.324072 0.577378
vt 0.393772 0.233728
vt 0.428272 0.291412
vt 0.307538 0.277178
vt 0.341700 0.236553
vt 0.317036 0.319221
vt 0.252846 0.699117
vt 0.249944 0.694203
vt 0.243907 0.688246
vt 0.246703 0.690271
vt 0.239012 0.683494
vt 0.241987 0.686127
vt 0.232303 0.682885
s 0
usemtl Material.001
f 1/1/1 2/2/1 3/3/1
f 1/1/1 3/3/1 4/4/1
f 1/1/1 4/4/1 5/5/1
f 1/1/1 5/5/1 6/6/1
f 5/5/1 7/7/1 6/6/1
f 1/1/1 6/6/1 8/8/1
f 1/1/1 8/8/1 9/9/1
f 6/6/1 10/10/1 8/8/1
f 8/8/1 11/11/1 9/9/1
f 8/8/1 12/12/1 11/11/1
f 12/12/1 13/13/1 11/11/1
f 11/11/1 14/14/1 9/9/1
f 12/12/1 15/15/1 13/13/1
f 12/12/1 16/16/1 15/15/1
f 15/15/1 17/17/1 13/13/1
f 14/14/1 18/18/1 9/9/1
f 14/14/1 19/19/1 18/18/1
f 14/14/1 20/20/1 19/19/1
f 19/19/1 21/21/1 18/18/1
f 1/1/1 9/9/1 22/22/1
f 9/9/1 23/23/1 22/22/1
f 1/1/1 22/22/1 24/24/1
f 23/23/1 25/25/1 22/22/1
f 1/1/1 24/24/1 26/26/1
f 23/23/1 27/27/1 25/25/1
f 27/27/1 28/28/1 25/25/1
f 1/1/1 26/26/1 29/29/1
f 28/28/1 30/30/1 25/25/1
f 28/28/1 31/31/1 30/30/1
f 30/30/1 32/32/1 25/25/1
f 1/1/1 29/29/1 33/33/1
f 29/29/1 34/34/1 33/33/1
f 34/34/1 35/35/1 33/33/1
f 34/34/1 36/36/1 35/35/1
f 35/35/1 37/37/1 33/33/1
f 1/1/1 33/33/1 38/38/1
f 39/39/1 1/1/1 38/38/1
f 39/39/1 38/38/1 40/40/1
f 38/38/1 41/41/1 40/40/1
f 38/38/1 42/42/1 41/41/1
f 41/41/1 43/43/1 40/40/1
f 39/39/1 40/40/1 44/44/1
f 39/39/1 44/44/1 45/45/1
f 39/39/1 45/45/1 46/46/1
f 45/45/1 47/47/1 46/46/1
f 46/46/1 48/48/1 39/39/1
f 47/47/1 49/49/1 46/46/1
f 49/49/1 50/50/1 46/46/1
f 47/47/1 51/51/1 49/49/1
f 51/51/1 52/52/1 49/49/1
f 50/50/1 53/53/1 46/46/1
f 53/53/1 54/54/1 46/46/1
f 54/54/1 55/55/1 46/46/1
f 46/46/1 56/56/1 48/48/1
f 56/56/1 57/57/1 48/48/1
f 57/57/1 58/58/1 48/48/1
f 58/58/1 59/59/1 48/48/1
f 55/55/1 60/60/1 46/46/1
f 55/55/1 61/61/1 60/60/1
f 60/60/1 62/62/1 46/46/1
f 60/60/1 63/63/1 62/62/1
f 62/62/1 64/64/1 46/46/1
f 58/58/1 65/65/1 59/59/1
f 58/58/1 66/66/1 65/65/1
f 58/58/1 67/67/1 66/66/1
f 65/65/1 68/68/1 59/59/1
f 68/68/1 69/69/1 59/59/1
f 69/69/1 70/70/1 59/59/1
f 69/69/1 71/71/1 70/70/1
f 69/69/1 72/72/1 71/71/1
f 71/71/1 73/73/1 70/70/1
f 73/73/1 74/74/1 70/70/1
f 74/74/1 75/75/1 70/70/1
f 73/73/1 76/76/1 74/74/1
f 73/73/1 77/77/1 76/76/1
f 73/73/1 78/78/1 77/77/1
f 77/77/1 79/79/1 76/76/1
f 79/79/1 80/80/1 76/76/1
f 76/76/1 81/81/1 74/74/1
f 81/81/1 82/82/1 74/74/1
f 76/76/1 83/83/1 81/81/1
f 76/76/1 84/84/1 83/83/1
f 83/83/1 85/85/1 81/81/1
f 83/83/1 86/86/1 85/85/1
f 85/85/1 87/87/1 81/81/1
f 6/6/1 88/88/1 89/89/1
f 6/6/1 89/89/1 90/90/1
f 89/89/1 91/91/1 90/90/1
f 6/6/1 90/90/1 10/10/1
f 90/90/1 92/92/1 10/10/1
f 90/90/1 93/93/1 92/92/1
f 92/92/1 94/94/1 10/10/1
