# Blender 3.6.2
# www.blender.org
mtllib L1-TutorialTree.mtl
g L1-TutorialTree_L1-TutorialTree
v -31.023590 -64.067406 -0.000031
v 17.576813 -38.502548 -0.000025
v 47.803406 -63.714554 -0.000024
v -37.550888 209.486954 -0.000011
v 147.147995 111.548889 -0.000002
v 55.271317 -124.601944 -0.000028
v 181.425064 113.451355 0.000001
v 363.156433 209.486969 0.000024
v 207.208191 97.960495 0.000002
v 208.201477 97.301636 0.000002
v 208.939087 95.860184 0.000002
v 205.887909 97.990433 0.000002
v 204.431427 97.448273 0.000001
v 98.410995 -26.688354 -0.000017
v 131.079193 62.836639 -0.000008
v 118.653198 -10.341949 -0.000014
v 146.784805 -122.853958 -0.000020
v 111.624603 -139.023346 -0.000024
v 139.275208 -96.882553 -0.000019
v 224.629898 97.549469 0.000003
v 209.097366 93.602875 0.000002
v 208.454056 94.493149 0.000002
v 222.813797 96.929169 0.000003
v 211.405731 92.324265 0.000002
v 209.058609 92.567215 0.000002
v 210.053787 91.838196 0.000002
v 208.753448 90.517899 0.000001
v 208.443298 91.426178 0.000001
v 209.555115 91.070816 0.000001
v 208.416748 90.241364 0.000001
v 208.934067 89.343781 0.000001
v 208.331665 89.590607 0.000001
v 209.609299 89.940063 0.000001
v 216.438721 92.877396 0.000002
v 213.017151 92.378723 0.000002
v 214.174957 91.924103 0.000002
v 217.489868 92.810745 0.000002
v 215.617706 92.366730 0.000002
v 214.623779 91.081558 0.000002
v 215.163437 91.248611 0.000002
v 218.398758 92.197845 0.000002
v 221.904587 95.150009 0.000003
v 220.718399 90.207764 0.000002
v 218.801529 90.334412 0.000002
v 218.378006 91.116455 0.000002
v 219.563110 90.014252 0.000002
v 221.363281 92.353851 0.000003
v 221.279190 90.968781 0.000002
v 221.897888 93.291779 0.000003
v 226.367111 97.557724 0.000003
v 227.665924 97.148514 0.000003
v 229.033585 97.838593 0.000004
v 230.890091 97.980927 0.000004
v 250.056244 106.013367 0.000006
v 254.880646 107.660255 0.000007
v 252.764099 106.338425 0.000006
v 256.591553 108.028114 0.000007
v 258.388214 108.034286 0.000007
v 263.211731 107.720886 0.000007
v 264.570312 107.324448 0.000007
v 259.777222 107.728531 0.000007
v 262.120850 107.590332 0.000007
v 261.024200 107.235748 0.000007
v 248.610107 105.360336 0.000006
v 281.133575 101.415985 0.000008
v 265.480225 106.554230 0.000008
v 234.903641 97.960098 0.000004
v 232.455902 97.651596 0.000004
v 233.657455 97.057907 0.000004
v 237.227509 97.884277 0.000004
v 243.398682 101.757919 0.000005
v 238.608307 96.549088 0.000004
v 244.527039 102.455597 0.000005
v 245.606628 102.514305 0.000005
v 247.258667 103.355667 0.000006
v 247.209564 102.095871 0.000006
v 239.762909 92.895615 0.000004
v 238.886078 95.473831 0.000004
v 238.732864 94.202560 0.000004
v 242.935455 100.549362 0.000005
v 240.092682 90.291092 0.000004
v 239.592178 91.504639 0.000004
v 239.686523 90.699371 0.000004
v 241.968628 93.380234 0.000004
v 242.626740 97.161209 0.000005
v 242.978149 98.864258 0.000005
v 242.570007 95.684143 0.000005
v 242.767426 94.299255 0.000005
v 241.600525 92.429977 0.000004
v 241.393845 90.349533 0.000004
v 240.900726 90.142181 0.000004
v 241.783127 91.209366 0.000004
v 265.982971 105.641312 0.000007
v 267.067566 104.657990 0.000007
v 273.431885 102.822464 0.000008
v 270.049530 103.617279 0.000008
v 267.637360 103.694466 0.000007
v 279.761841 101.573532 0.000008
v 276.055664 101.825035 0.000008
v 278.454651 101.066528 0.000008
v 283.212830 100.145126 0.000009
v 297.498077 88.502121 0.000009
v 288.834351 93.500839 0.000009
v 297.915802 86.729950 0.000009
v 296.336761 89.143494 0.000009
v 296.405853 82.007584 0.000008
v 211.106171 -98.915253 -0.000013
v 282.568268 61.977776 0.000006
v 297.394409 85.472275 0.000009
v 363.156433 -258.571899 -0.000012
v 296.599182 83.380402 0.000008
v 296.230072 84.781769 0.000009
v 286.945587 95.631119 0.000009
v 283.679138 98.991089 0.000009
v 287.577118 94.099487 0.000008
v 284.548828 97.416687 0.000008
v 283.522308 98.148285 0.000008
v 284.887421 96.430328 0.000008
v 152.675507 -168.699051 -0.000023
v 36.837509 -167.872238 -0.000033
v -267.534607 -113.399551 -0.000056
v 1.479599 -96.141144 -0.000031
v -343.134521 -258.571899 -0.000073
v -293.570984 37.120407 -0.000047
v -343.134521 209.486938 -0.000038
v -204.373825 151.086044 -0.000030
v -218.538620 79.592697 -0.000037
v -149.638412 147.914017 -0.000026
v -131.966232 32.311363 -0.000033
v -226.791214 13.448212 -0.000043
v -224.328629 -50.291748 -0.000047
v 289.813049 92.148849 0.000009
v 290.076263 90.978867 0.000008
v 290.981140 91.299164 0.000009
v 292.370728 91.197693 0.000009
v 293.868347 90.304657 0.000009
v 294.332062 88.919159 0.000009
v 293.467072 80.673218 0.000008
v 292.676941 79.402267 0.000008
v 292.811432 77.737747 0.000008
v 295.187164 81.007248 0.000008
v 292.613556 76.972885 0.000008
v 291.723877 76.229515 0.000008
v 287.450684 73.125748 0.000007
v 288.853546 74.540054 0.000007
v 289.653442 76.181396 0.000007
v 283.250305 65.282791 0.000006
v 282.796051 63.532818 0.000006
v 282.382324 64.488739 0.000006
v 283.905396 70.434021 0.000006
v 285.344055 72.248505 0.000007
v 283.409180 66.933495 0.000006
v 283.061981 68.210541 0.000006
v 281.777130 60.863739 0.000005
v 279.279266 57.337936 0.000005
v 279.994110 58.547066 0.000005
v 280.191040 60.187569 0.000005
v 277.537903 56.541626 0.000005
v 273.206909 55.953629 0.000004
v 275.350220 56.723450 0.000005
v 271.097015 55.748886 0.000004
v 266.384186 55.770958 0.000004
v 264.222931 55.878098 0.000004
v 268.711182 56.149246 0.000004
v 261.805908 56.417076 0.000003
v 257.893433 58.456444 0.000003
v 259.243347 57.819244 0.000003
v 260.602631 57.697044 0.000003
v 249.243011 68.995865 0.000003
v 256.979523 59.777046 0.000003
v 254.168243 65.585045 0.000003
v 257.015564 61.276405 0.000003
v 255.477081 64.818420 0.000003
v 253.214172 66.464127 0.000003
v 257.770508 63.552910 0.000004
v 257.639038 62.348038 0.000003
v 256.665375 64.484665 0.000004
v 257.574280 64.517792 0.000004
v 250.814301 68.596161 0.000003
v 252.840851 68.149475 0.000003
v 252.050262 68.946548 0.000003
v 252.746124 69.659988 0.000004
v 233.278336 70.357086 0.000002
v 248.670593 69.770195 0.000003
v 221.408585 70.194397 0.000001
v 219.621109 70.431671 0.000001
v 208.128967 47.061005 -0.000002
v 196.583740 64.718346 -0.000002
v 185.677414 76.686630 -0.000002
v 218.223511 71.932846 0.000001
v 170.594604 67.353867 -0.000004
v 231.824448 70.553787 0.000002
v 227.149261 71.151627 0.000001
v 230.569122 71.704414 0.000002
v 228.510956 71.769379 0.000002
v 229.434662 72.386917 0.000002
v 225.572998 71.047348 0.000001
v 223.156021 70.906944 0.000001
v 224.012527 71.558495 0.000001
v 237.257843 70.357216 0.000002
v 234.863815 70.749275 0.000002
v 236.159576 71.182144 0.000002
v 239.056961 70.174484 0.000002
v 243.781403 70.106155 0.000003
v 240.551437 70.481964 0.000003
v 241.880798 71.078476 0.000003
v 245.921600 70.133728 0.000003
v 247.559204 70.633575 0.000003
v 248.504883 70.999626 0.000003
vn -0.0000 -0.0000 1.0000
vt 0.567340 1.000000
vt 0.489288 0.470174
vt 0.446492 0.416309
vt 0.558099 0.415556
vt 0.305835 0.790757
vt 0.435918 0.286225
vt 0.257304 0.794821
vt 0.000000 1.000000
vt 0.220799 0.761725
vt 0.219393 0.760318
vt 0.218348 0.757238
vt 0.222668 0.761789
vt 0.224730 0.760631
vt 0.374839 0.495415
vt 0.328586 0.686684
vt 0.346179 0.530339
vt 0.306349 0.289959
vt 0.356131 0.255414
vt 0.316982 0.345447
vt 0.196132 0.760847
vt 0.218124 0.752415
vt 0.219035 0.754318
vt 0.198704 0.759522
vt 0.214856 0.749684
vt 0.218179 0.750203
vt 0.216770 0.748645
vt 0.218611 0.745825
vt 0.219050 0.747765
vt 0.217476 0.747006
vt 0.219088 0.745234
vt 0.218355 0.743316
vt 0.219208 0.743843
vt 0.217399 0.744590
vt 0.207730 0.750866
vt 0.212574 0.749800
vt 0.210935 0.748829
vt 0.206242 0.750723
vt 0.208892 0.749775
vt 0.210300 0.747029
vt 0.209535 0.747386
vt 0.204955 0.749414
vt 0.199991 0.755721
vt 0.201670 0.745162
vt 0.204385 0.745432
vt 0.204984 0.747103
vt 0.203306 0.744749
vt 0.200757 0.749747
vt 0.200877 0.746788
vt 0.200001 0.751751
vt 0.193673 0.760865
vt 0.191834 0.759991
vt 0.189897 0.761465
vt 0.187269 0.761769
vt 0.160133 0.778930
vt 0.153302 0.782449
vt 0.156299 0.779625
vt 0.150880 0.783235
vt 0.148336 0.783248
vt 0.141506 0.782578
vt 0.139583 0.781732
vt 0.146369 0.782595
vt 0.143051 0.782299
vt 0.144604 0.781542
vt 0.162180 0.777535
vt 0.116132 0.769108
vt 0.138295 0.780086
vt 0.181586 0.761725
vt 0.185052 0.761066
vt 0.183351 0.759797
vt 0.178296 0.761563
vt 0.169559 0.769839
vt 0.176341 0.758710
vt 0.167961 0.771329
vt 0.166433 0.771455
vt 0.164094 0.773252
vt 0.164163 0.770561
vt 0.174706 0.750905
vt 0.175948 0.756413
vt 0.176165 0.753697
vt 0.170215 0.767257
vt 0.174239 0.745340
vt 0.174948 0.747933
vt 0.174815 0.746212
vt 0.171583 0.751940
vt 0.170652 0.760018
vt 0.170154 0.763656
vt 0.170732 0.756862
vt 0.170452 0.753903
vt 0.172105 0.749910
vt 0.172397 0.745465
vt 0.173095 0.745022
vt 0.171846 0.747302
vt 0.137583 0.778135
vt 0.136047 0.776035
vt 0.127036 0.772113
vt 0.131825 0.773811
vt 0.135240 0.773976
vt 0.118074 0.769445
vt 0.123321 0.769982
vt 0.119925 0.768362
vt 0.113188 0.766393
vt 0.092962 0.741518
vt 0.105229 0.752198
vt 0.092371 0.737732
vt 0.094606 0.742888
vt 0.094509 0.727642
vt 0.215280 0.341104
vt 0.114101 0.684849
vt 0.093109 0.735045
vt 0.000000 0.000000
vt 0.094235 0.730575
vt 0.094758 0.733569
vt 0.107903 0.756749
vt 0.112528 0.763927
vt 0.107009 0.753477
vt 0.111296 0.760564
vt 0.112750 0.762127
vt 0.110817 0.758456
vt 0.298009 0.192012
vt 0.462018 0.193778
vt 0.892962 0.310158
vt 0.512079 0.347031
vt 1.000000 0.000000
vt 0.929826 0.631742
vt 1.000000 1.000000
vt 0.803536 0.875227
vt 0.823591 0.722483
vt 0.726039 0.868450
vt 0.701018 0.621467
vt 0.835276 0.581166
vt 0.831789 0.444987
vt 0.103843 0.749309
vt 0.103470 0.746809
vt 0.102189 0.747494
vt 0.100222 0.747277
vt 0.098101 0.745369
vt 0.097445 0.742409
vt 0.098670 0.724792
vt 0.099788 0.722076
vt 0.099598 0.718520
vt 0.096234 0.725505
vt 0.099878 0.716886
vt 0.101138 0.715298
vt 0.107188 0.708667
vt 0.105202 0.711688
vt 0.104069 0.715195
vt 0.113135 0.691910
vt 0.113778 0.688171
vt 0.114364 0.690214
vt 0.112207 0.702916
vt 0.110170 0.706792
vt 0.112910 0.695437
vt 0.113402 0.698165
vt 0.115221 0.682469
vt 0.118757 0.674936
vt 0.117745 0.677519
vt 0.117466 0.681024
vt 0.121223 0.673235
vt 0.127355 0.671979
vt 0.124320 0.673623
vt 0.130342 0.671541
vt 0.137015 0.671588
vt 0.140075 0.671817
vt 0.133720 0.672396
vt 0.143497 0.672969
vt 0.149036 0.677326
vt 0.147125 0.675964
vt 0.145201 0.675703
vt 0.161284 0.699843
vt 0.150330 0.680147
vt 0.154311 0.692556
vt 0.150279 0.683351
vt 0.152458 0.690918
vt 0.155661 0.694434
vt 0.149210 0.688214
vt 0.149396 0.685640
vt 0.150775 0.690205
vt 0.149488 0.690276
vt 0.159059 0.698989
vt 0.156190 0.698035
vt 0.157309 0.699738
vt 0.156324 0.701262
vt 0.183888 0.702751
vt 0.162094 0.701497
vt 0.200693 0.702404
vt 0.203224 0.702911
vt 0.219495 0.652980
vt 0.235842 0.690704
vt 0.251283 0.716274
vt 0.205203 0.706118
vt 0.272638 0.696335
vt 0.185946 0.703171
vt 0.192565 0.704449
vt 0.187723 0.705630
vt 0.190637 0.705769
vt 0.189330 0.707088
vt 0.194797 0.704226
vt 0.198219 0.703926
vt 0.197007 0.705318
vt 0.178253 0.702752
vt 0.181643 0.703589
vt 0.179808 0.704514
vt 0.175706 0.702361
vt 0.169017 0.702215
vt 0.173590 0.703018
vt 0.171708 0.704293
vt 0.165987 0.702274
vt 0.163668 0.703342
vt 0.162329 0.704124
s 0
usemtl Material.001
f 4/1/1 2/2/1 3/3/1
f 2/2/1 4/1/1 1/4/1
f 4/1/1 3/3/1 5/5/1
f 3/3/1 6/6/1 5/5/1
f 4/1/1 5/5/1 7/7/1
f 8/8/1 4/1/1 7/7/1
f 8/8/1 7/7/1 9/9/1
f 8/8/1 9/9/1 10/10/1
f 8/8/1 10/10/1 11/11/1
f 7/7/1 12/12/1 9/9/1
f 7/7/1 13/13/1 12/12/1
f 6/6/1 14/14/1 5/5/1
f 14/14/1 15/15/1 5/5/1
f 14/14/1 16/16/1 15/15/1
f 6/6/1 17/17/1 14/14/1
f 6/6/1 18/18/1 17/17/1
f 17/17/1 19/19/1 14/14/1
f 8/8/1 11/11/1 20/20/1
f 11/11/1 21/21/1 20/20/1
f 11/11/1 22/22/1 21/21/1
f 21/21/1 23/23/1 20/20/1
f 21/21/1 24/24/1 23/23/1
f 21/21/1 25/25/1 24/24/1
f 25/25/1 26/26/1 24/24/1
f 25/25/1 27/27/1 26/26/1
f 25/25/1 28/28/1 27/27/1
f 27/27/1 29/29/1 26/26/1
f 27/27/1 30/30/1 29/29/1
f 30/30/1 31/31/1 29/29/1
f 30/30/1 32/32/1 31/31/1
f 31/31/1 33/33/1 29/29/1
f 24/24/1 34/34/1 23/23/1
f 24/24/1 35/35/1 34/34/1
f 35/35/1 36/36/1 34/34/1
f 34/34/1 37/37/1 23/23/1
f 36/36/1 38/38/1 34/34/1
f 36/36/1 39/39/1 38/38/1
f 39/39/1 40/40/1 38/38/1
f 37/37/1 41/41/1 23/23/1
f 41/41/1 42/42/1 23/23/1
f 41/41/1 43/43/1 42/42/1
f 41/41/1 44/44/1 43/43/1
f 41/41/1 45/45/1 44/44/1
f 44/44/1 46/46/1 43/43/1
f 43/43/1 47/47/1 42/42/1
f 43/43/1 48/48/1 47/47/1
f 47/47/1 49/49/1 42/42/1
f 50/50/1 51/51/1 52/52/1
f 20/20/1 50/50/1 52/52/1
f 20/20/1 52/52/1 53/53/1
f 8/8/1 20/20/1 53/53/1
f 8/8/1 53/53/1 54/54/1
f 8/8/1 54/54/1 55/55/1
f 54/54/1 56/56/1 55/55/1
f 8/8/1 55/55/1 57/57/1
f 8/8/1 57/57/1 58/58/1
f 8/8/1 58/58/1 59/59/1
f 8/8/1 59/59/1 60/60/1
f 58/58/1 61/61/1 59/59/1
f 61/61/1 62/62/1 59/59/1
f 61/61/1 63/63/1 62/62/1
f 53/53/1 64/64/1 54/54/1
f 8/8/1 60/60/1 65/65/1
f 60/60/1 66/66/1 65/65/1
f 53/53/1 67/67/1 64/64/1
f 53/53/1 68/68/1 67/67/1
f 68/68/1 69/69/1 67/67/1
f 67/67/1 70/70/1 64/64/1
f 70/70/1 71/71/1 64/64/1
f 70/70/1 72/72/1 71/71/1
f 71/71/1 73/73/1 64/64/1
f 73/73/1 74/74/1 64/64/1
f 74/74/1 75/75/1 64/64/1
f 74/74/1 76/76/1 75/75/1
f 72/72/1 77/77/1 71/71/1
f 72/72/1 78/78/1 77/77/1
f 78/78/1 79/79/1 77/77/1
f 77/77/1 80/80/1 71/71/1
f 77/77/1 81/81/1 80/80/1
f 77/77/1 82/82/1 81/81/1
f 82/82/1 83/83/1 81/81/1
f 81/81/1 84/84/1 80/80/1
f 84/84/1 85/85/1 80/80/1
f 85/85/1 86/86/1 80/80/1
f 84/84/1 87/87/1 85/85/1
f 84/84/1 88/88/1 87/87/1
f 81/81/1 89/89/1 84/84/1
f 81/81/1 90/90/1 89/89/1
f 81/81/1 91/91/1 90/90/1
f 90/90/1 92/92/1 89/89/1
f 66/66/1 93/93/1 94/94/1
f 66/66/1 94/94/1 95/95/1
f 66/66/1 95/95/1 65/65/1
f 94/94/1 96/96/1 95/95/1
f 94/94/1 97/97/1 96/96/1
f 95/95/1 98/98/1 65/65/1
f 95/95/1 99/99/1 98/98/1
f 99/99/1 100/100/1 98/98/1
f 8/8/1 65/65/1 101/101/1
f 101/101/1 102/102/1 8/8/1
f 101/101/1 103/103/1 102/102/1
f 102/102/1 104/104/1 8/8/1
f 103/103/1 105/105/1 102/102/1
f 104/104/1 106/106/1 8/8/1
f 106/106/1 107/107/1 8/8/1
f 106/106/1 108/108/1 107/107/1
f 104/104/1 109/109/1 106/106/1
f 107/107/1 110/110/1 8/8/1
f 109/109/1 111/111/1 106/106/1
f 109/109/1 112/112/1 111/111/1
f 101/101/1 113/113/1 103/103/1
f 101/101/1 114/114/1 113/113/1
f 113/113/1 115/115/1 103/103/1
f 114/114/1 116/116/1 113/113/1
f 114/114/1 117/117/1 116/116/1
f 116/116/1 118/118/1 113/113/1
f 107/107/1 119/119/1 110/110/1
f 119/119/1 120/120/1 110/110/1
f 120/120/1 121/121/1 110/110/1
f 120/120/1 122/122/1 121/121/1
f 121/121/1 123/123/1 110/110/1
f 121/121/1 124/124/1 123/123/1
f 124/124/1 125/125/1 123/123/1
f 124/124/1 126/126/1 125/125/1
f 124/124/1 127/127/1 126/126/1
f 126/126/1 128/128/1 125/125/1
f 128/128/1 4/1/1 125/125/1
f 128/128/1 1/4/1 4/1/1
f 128/128/1 129/129/1 1/4/1
f 129/129/1 130/130/1 1/4/1
f 130/130/1 131/131/1 1/4/1
f 132/132/1 133/133/1 134/134/1
f 132/132/1 134/134/1 135/135/1
f 103/103/1 132/132/1 135/135/1
f 103/103/1 135/135/1 105/105/1
f 135/135/1 136/136/1 105/105/1
f 136/136/1 137/137/1 105/105/1
f 138/138/1 139/139/1 140/140/1
f 141/141/1 138/138/1 140/140/1
f 141/141/1 140/140/1 142/142/1
f 106/106/1 141/141/1 142/142/1
f 106/106/1 142/142/1 108/108/1
f 142/142/1 143/143/1 108/108/1
f 143/143/1 144/144/1 108/108/1
f 143/143/1 145/145/1 144/144/1
f 143/143/1 146/146/1 145/145/1
f 144/144/1 147/147/1 108/108/1
f 147/147/1 148/148/1 108/108/1
f 147/147/1 149/149/1 148/148/1
f 144/144/1 150/150/1 147/147/1
f 144/144/1 151/151/1 150/150/1
f 150/150/1 152/152/1 147/147/1
f 150/150/1 153/153/1 152/152/1
f 108/108/1 154/154/1 155/155/1
f 108/108/1 155/155/1 107/107/1
f 154/154/1 156/156/1 155/155/1
f 154/154/1 157/157/1 156/156/1
f 155/155/1 158/158/1 107/107/1
f 158/158/1 159/159/1 107/107/1
f 158/158/1 160/160/1 159/159/1
f 159/159/1 161/161/1 107/107/1
f 161/161/1 162/162/1 107/107/1
f 162/162/1 163/163/1 107/107/1
f 161/161/1 164/164/1 162/162/1
f 163/163/1 165/165/1 107/107/1
f 165/165/1 166/166/1 107/107/1
f 165/165/1 167/167/1 166/166/1
f 165/165/1 168/168/1 167/167/1
f 166/166/1 169/169/1 107/107/1
f 166/166/1 170/170/1 169/169/1
f 170/170/1 171/171/1 169/169/1
f 170/170/1 172/172/1 171/171/1
f 172/172/1 173/173/1 171/171/1
f 171/171/1 174/174/1 169/169/1
f 172/172/1 175/175/1 173/173/1
f 172/172/1 176/176/1 175/175/1
f 175/175/1 177/177/1 173/173/1
f 175/175/1 178/178/1 177/177/1
f 174/174/1 179/179/1 169/169/1
f 174/174/1 180/180/1 179/179/1
f 180/180/1 181/181/1 179/179/1
f 180/180/1 182/182/1 181/181/1
f 169/169/1 183/183/1 107/107/1
f 169/169/1 184/184/1 183/183/1
f 183/183/1 185/185/1 107/107/1
f 185/185/1 186/186/1 107/107/1
f 186/186/1 187/187/1 107/107/1
f 186/186/1 188/188/1 187/187/1
f 186/186/1 189/189/1 188/188/1
f 186/186/1 190/190/1 189/189/1
f 189/189/1 191/191/1 188/188/1
f 183/183/1 192/192/1 185/185/1
f 192/192/1 193/193/1 185/185/1
f 192/192/1 194/194/1 193/193/1
f 194/194/1 195/195/1 193/193/1
f 194/194/1 196/196/1 195/195/1
f 193/193/1 197/197/1 185/185/1
f 197/197/1 198/198/1 185/185/1
f 197/197/1 199/199/1 198/198/1
f 200/200/1 201/201/1 183/183/1
f 200/200/1 202/202/1 201/201/1
f 203/203/1 200/200/1 183/183/1
f 184/184/1 203/203/1 183/183/1
f 184/184/1 204/204/1 203/203/1
f 204/204/1 205/205/1 203/203/1
f 204/204/1 206/206/1 205/205/1
f 184/184/1 207/207/1 204/204/1
f 184/184/1 208/208/1 207/207/1
f 184/184/1 209/209/1 208/208/1
